<svg xmlns="http://www.w3.org/2000/svg" width="20.584" height="38.002" viewBox="0 0 20.584 38.002">
  <g id="dollar_1_" data-name="dollar (1)" transform="translate(-117.333)">
    <g id="Group_584" data-name="Group 584" transform="translate(117.333)">
      <path id="Path_97" data-name="Path 97" d="M132.276,19.85a0,0,0,0,1,0,0c-1.843-.743-2.912-1.123-3.856-1.441V4.779c4.43.293,7.915,3.007,7.915,6.305a.792.792,0,0,0,1.583,0c0-4.16-4.194-7.573-9.5-7.887V.792a.792.792,0,1,0-1.583,0V3.2c-5.306.314-9.5,3.727-9.5,7.887,0,3.013,2.168,5.724,5.656,7.075h0c1.835.714,2.9,1.077,3.843,1.392V33.223c-4.434-.293-7.919-3.007-7.919-6.305a.792.792,0,0,0-1.583,0c0,4.16,4.194,7.573,9.5,7.887V37.21a.792.792,0,1,0,1.583,0V34.805c5.306-.314,9.5-3.727,9.5-7.887C137.917,23.908,135.756,21.2,132.276,19.85Zm-5.442-1.97c-.815-.276-1.783-.619-3.271-1.2l0,0c-2.864-1.108-4.644-3.254-4.644-5.6,0-3.3,3.485-6.012,7.917-6.305Zm1.583,15.343V20.081c.812.282,1.781.638,3.263,1.237l.006,0s0,0,0,0c2.863,1.107,4.643,3.252,4.643,5.6C136.334,30.216,132.849,32.93,128.417,33.223Z" transform="translate(-117.333)" fill="#8c61fe"/>
    </g>
  </g>
</svg>
