<svg xmlns="http://www.w3.org/2000/svg" xmlns:xlink="http://www.w3.org/1999/xlink" width="1015.499" height="1241.962" viewBox="0 0 1015.499 1241.962">
  <defs>
    <clipPath id="clip-path">
      <path id="Path_33" data-name="Path 33" d="M1139.933-253.143a8.471,8.471,0,0,1-8.5-8.449,8.471,8.471,0,0,1,8.5-8.449,8.472,8.472,0,0,1,8.5,8.449,8.472,8.472,0,0,1-8.5,8.449Zm0-59.142a8.471,8.471,0,0,1-8.5-8.449,8.471,8.471,0,0,1,8.5-8.449,8.472,8.472,0,0,1,8.5,8.449,8.472,8.472,0,0,1-8.5,8.451Zm0-59.143a8.471,8.471,0,0,1-8.5-8.449,8.471,8.471,0,0,1,8.5-8.449,8.471,8.471,0,0,1,8.5,8.449,8.471,8.471,0,0,1-8.5,8.449Zm0-59.143a8.471,8.471,0,0,1-8.5-8.449,8.471,8.471,0,0,1,8.5-8.449,8.471,8.471,0,0,1,8.5,8.449,8.472,8.472,0,0,1-8.5,8.449Zm0-59.142a8.471,8.471,0,0,1-8.5-8.449,8.471,8.471,0,0,1,8.5-8.449,8.472,8.472,0,0,1,8.5,8.449A8.471,8.471,0,0,1,1139.933-489.713Zm0-59.143a8.471,8.471,0,0,1-8.5-8.449,8.471,8.471,0,0,1,8.5-8.449,8.471,8.471,0,0,1,8.5,8.449A8.471,8.471,0,0,1,1139.933-548.856Zm-55.8,295.713a8.471,8.471,0,0,1-8.5-8.449,8.471,8.471,0,0,1,8.5-8.449,8.472,8.472,0,0,1,8.5,8.449,8.471,8.471,0,0,1-8.492,8.449Zm0-59.143a8.471,8.471,0,0,1-8.5-8.449,8.471,8.471,0,0,1,8.5-8.449,8.472,8.472,0,0,1,8.5,8.449,8.472,8.472,0,0,1-8.492,8.451Zm0-59.143a8.471,8.471,0,0,1-8.5-8.449,8.472,8.472,0,0,1,8.5-8.449,8.471,8.471,0,0,1,8.5,8.449,8.471,8.471,0,0,1-8.492,8.449Zm0-59.143a8.471,8.471,0,0,1-8.5-8.449,8.471,8.471,0,0,1,8.5-8.449,8.471,8.471,0,0,1,8.5,8.449,8.472,8.472,0,0,1-8.492,8.449Zm0-59.143a8.471,8.471,0,0,1-8.5-8.449,8.471,8.471,0,0,1,8.5-8.449,8.471,8.471,0,0,1,8.5,8.449,8.472,8.472,0,0,1-8.492,8.449Zm0-59.143a8.471,8.471,0,0,1-8.5-8.449,8.471,8.471,0,0,1,8.5-8.449,8.471,8.471,0,0,1,8.5,8.449,8.471,8.471,0,0,1-8.492,8.449Zm-55.8,295.713a8.471,8.471,0,0,1-8.5-8.449,8.471,8.471,0,0,1,8.5-8.449,8.471,8.471,0,0,1,8.5,8.449,8.471,8.471,0,0,1-8.492,8.449Zm0-59.142a8.471,8.471,0,0,1-8.5-8.449,8.472,8.472,0,0,1,8.5-8.449,8.471,8.471,0,0,1,8.5,8.449,8.472,8.472,0,0,1-8.492,8.451Zm0-59.143a8.471,8.471,0,0,1-8.5-8.449,8.471,8.471,0,0,1,8.5-8.448,8.471,8.471,0,0,1,8.5,8.449,8.471,8.471,0,0,1-8.492,8.449Zm0-59.143a8.471,8.471,0,0,1-8.5-8.449,8.471,8.471,0,0,1,8.5-8.449,8.472,8.472,0,0,1,8.5,8.449,8.472,8.472,0,0,1-8.492,8.449Zm0-59.143a8.471,8.471,0,0,1-8.5-8.449,8.471,8.471,0,0,1,8.5-8.449,8.471,8.471,0,0,1,8.5,8.449,8.471,8.471,0,0,1-8.492,8.449Zm0-59.143a8.471,8.471,0,0,1-8.5-8.449,8.471,8.471,0,0,1,8.5-8.449,8.471,8.471,0,0,1,8.5,8.449,8.471,8.471,0,0,1-8.492,8.449ZM970.093-253.143a8.472,8.472,0,0,1-8.5-8.449,8.472,8.472,0,0,1,8.5-8.449,8.471,8.471,0,0,1,8.5,8.449,8.471,8.471,0,0,1-8.492,8.449Zm0-59.143a8.472,8.472,0,0,1-8.5-8.449,8.471,8.471,0,0,1,8.5-8.449,8.471,8.471,0,0,1,8.5,8.449,8.472,8.472,0,0,1-8.492,8.451Zm0-59.143a8.472,8.472,0,0,1-8.5-8.449,8.471,8.471,0,0,1,8.5-8.448,8.471,8.471,0,0,1,8.5,8.449,8.471,8.471,0,0,1-8.492,8.449Zm0-59.143a8.471,8.471,0,0,1-8.5-8.449,8.472,8.472,0,0,1,8.5-8.449,8.471,8.471,0,0,1,8.5,8.449,8.471,8.471,0,0,1-8.492,8.449Zm0-59.143a8.471,8.471,0,0,1-8.5-8.449,8.472,8.472,0,0,1,8.5-8.449,8.471,8.471,0,0,1,8.5,8.449,8.471,8.471,0,0,1-8.492,8.449Zm0-59.142a8.472,8.472,0,0,1-8.5-8.449,8.471,8.471,0,0,1,8.5-8.449,8.471,8.471,0,0,1,8.5,8.449,8.471,8.471,0,0,1-8.492,8.449Zm-55.8,295.713a8.472,8.472,0,0,1-8.5-8.449,8.471,8.471,0,0,1,8.5-8.449,8.471,8.471,0,0,1,8.5,8.449,8.471,8.471,0,0,1-8.493,8.449Zm0-59.143a8.471,8.471,0,0,1-8.5-8.449,8.471,8.471,0,0,1,8.5-8.449,8.471,8.471,0,0,1,8.5,8.449,8.471,8.471,0,0,1-8.493,8.451Zm0-59.142a8.471,8.471,0,0,1-8.5-8.449,8.471,8.471,0,0,1,8.5-8.449,8.471,8.471,0,0,1,8.5,8.449,8.471,8.471,0,0,1-8.493,8.449Zm0-59.143a8.471,8.471,0,0,1-8.5-8.449,8.471,8.471,0,0,1,8.5-8.449,8.471,8.471,0,0,1,8.5,8.449,8.471,8.471,0,0,1-8.493,8.449Zm0-59.143a8.471,8.471,0,0,1-8.5-8.449,8.471,8.471,0,0,1,8.5-8.449,8.471,8.471,0,0,1,8.5,8.449,8.471,8.471,0,0,1-8.493,8.449Zm0-59.143a8.471,8.471,0,0,1-8.5-8.449,8.471,8.471,0,0,1,8.5-8.449,8.472,8.472,0,0,1,8.5,8.449,8.471,8.471,0,0,1-8.493,8.449ZM858.5-253.143a8.471,8.471,0,0,1-8.5-8.449,8.472,8.472,0,0,1,8.5-8.449,8.472,8.472,0,0,1,8.5,8.449,8.472,8.472,0,0,1-8.5,8.449Zm0-59.142a8.471,8.471,0,0,1-8.5-8.449,8.472,8.472,0,0,1,8.5-8.449,8.472,8.472,0,0,1,8.5,8.449,8.471,8.471,0,0,1-8.5,8.451Zm0-59.143a8.471,8.471,0,0,1-8.5-8.449,8.472,8.472,0,0,1,8.5-8.449,8.471,8.471,0,0,1,8.5,8.449,8.471,8.471,0,0,1-8.5,8.449Zm0-59.143a8.471,8.471,0,0,1-8.5-8.449,8.471,8.471,0,0,1,8.5-8.449,8.471,8.471,0,0,1,8.5,8.449,8.472,8.472,0,0,1-8.5,8.449Zm0-59.142a8.471,8.471,0,0,1-8.5-8.449,8.471,8.471,0,0,1,8.5-8.449,8.472,8.472,0,0,1,8.5,8.449,8.471,8.471,0,0,1-8.5,8.449Zm0-59.143A8.471,8.471,0,0,1,850-557.3a8.471,8.471,0,0,1,8.5-8.449A8.472,8.472,0,0,1,867-557.3a8.471,8.471,0,0,1-8.5,8.449Zm281.434,651.743a8.449,8.449,0,1,1,8.5-8.449,8.471,8.471,0,0,1-8.5,8.449Zm0-59.143a8.449,8.449,0,1,1,8.5-8.449A8.471,8.471,0,0,1,1139.933,43.745Zm0-59.143a8.471,8.471,0,0,1-8.5-8.449,8.471,8.471,0,0,1,8.5-8.449,8.472,8.472,0,0,1,8.5,8.449A8.471,8.471,0,0,1,1139.933-15.4Zm0-59.143a8.471,8.471,0,0,1-8.5-8.449,8.471,8.471,0,0,1,8.5-8.449,8.471,8.471,0,0,1,8.5,8.449,8.472,8.472,0,0,1-8.5,8.449Zm0-59.143a8.471,8.471,0,0,1-8.5-8.449,8.471,8.471,0,0,1,8.5-8.449,8.472,8.472,0,0,1,8.5,8.449,8.472,8.472,0,0,1-8.5,8.449Zm0-59.142a8.472,8.472,0,0,1-8.5-8.449,8.471,8.471,0,0,1,8.5-8.449,8.472,8.472,0,0,1,8.5,8.449A8.472,8.472,0,0,1,1139.933-192.825Zm-55.8,295.713a8.449,8.449,0,1,1,8.5-8.449,8.471,8.471,0,0,1-8.5,8.449Zm0-59.143a8.449,8.449,0,1,1,8.5-8.449,8.471,8.471,0,0,1-8.5,8.449Zm0-59.143a8.471,8.471,0,0,1-8.5-8.449,8.471,8.471,0,0,1,8.5-8.449,8.472,8.472,0,0,1,8.5,8.449,8.471,8.471,0,0,1-8.5,8.449Zm0-59.143a8.471,8.471,0,0,1-8.5-8.449,8.471,8.471,0,0,1,8.5-8.449,8.471,8.471,0,0,1,8.5,8.449,8.471,8.471,0,0,1-8.5,8.449Zm0-59.143a8.471,8.471,0,0,1-8.5-8.449,8.471,8.471,0,0,1,8.5-8.449,8.472,8.472,0,0,1,8.5,8.449,8.471,8.471,0,0,1-8.5,8.449Zm0-59.142a8.471,8.471,0,0,1-8.5-8.449,8.471,8.471,0,0,1,8.5-8.449,8.472,8.472,0,0,1,8.5,8.449,8.472,8.472,0,0,1-8.5,8.449Zm-55.8,295.713a8.449,8.449,0,1,1,8.5-8.449,8.471,8.471,0,0,1-8.5,8.449Zm0-59.143a8.449,8.449,0,1,1,8.5-8.449,8.471,8.471,0,0,1-8.5,8.449Zm0-59.143a8.471,8.471,0,0,1-8.5-8.449,8.471,8.471,0,0,1,8.5-8.449,8.472,8.472,0,0,1,8.5,8.449,8.472,8.472,0,0,1-8.5,8.449Zm0-59.143a8.471,8.471,0,0,1-8.5-8.449,8.471,8.471,0,0,1,8.5-8.449,8.472,8.472,0,0,1,8.5,8.449,8.472,8.472,0,0,1-8.5,8.449Zm0-59.143a8.471,8.471,0,0,1-8.5-8.449,8.471,8.471,0,0,1,8.5-8.449,8.472,8.472,0,0,1,8.5,8.449,8.472,8.472,0,0,1-8.5,8.449Zm0-59.142a8.472,8.472,0,0,1-8.5-8.449,8.471,8.471,0,0,1,8.5-8.449,8.472,8.472,0,0,1,8.5,8.449,8.472,8.472,0,0,1-8.5,8.449ZM970.1,102.888a8.449,8.449,0,1,1,8.5-8.449,8.472,8.472,0,0,1-8.5,8.449Zm0-59.143a8.449,8.449,0,1,1,8.5-8.449A8.472,8.472,0,0,1,970.1,43.745Zm0-59.143a8.472,8.472,0,0,1-8.5-8.449,8.472,8.472,0,0,1,8.5-8.449,8.471,8.471,0,0,1,8.5,8.449A8.471,8.471,0,0,1,970.1-15.4Zm0-59.143a8.472,8.472,0,0,1-8.5-8.449,8.472,8.472,0,0,1,8.5-8.449,8.471,8.471,0,0,1,8.5,8.449,8.471,8.471,0,0,1-8.5,8.449Zm0-59.143a8.472,8.472,0,0,1-8.5-8.449,8.472,8.472,0,0,1,8.5-8.449,8.471,8.471,0,0,1,8.5,8.449,8.471,8.471,0,0,1-8.5,8.449Zm0-59.142a8.472,8.472,0,0,1-8.5-8.449,8.472,8.472,0,0,1,8.5-8.449,8.471,8.471,0,0,1,8.5,8.449A8.471,8.471,0,0,1,970.1-192.825ZM914.3,102.888a8.449,8.449,0,1,1,8.5-8.449,8.471,8.471,0,0,1-8.5,8.449Zm0-59.143a8.449,8.449,0,1,1,8.5-8.449A8.471,8.471,0,0,1,914.3,43.745Zm0-59.143a8.471,8.471,0,0,1-8.5-8.449,8.471,8.471,0,0,1,8.5-8.449,8.472,8.472,0,0,1,8.5,8.449A8.471,8.471,0,0,1,914.3-15.4Zm0-59.143a8.471,8.471,0,0,1-8.5-8.449,8.471,8.471,0,0,1,8.5-8.449,8.472,8.472,0,0,1,8.5,8.449,8.472,8.472,0,0,1-8.5,8.449Zm0-59.143a8.471,8.471,0,0,1-8.5-8.449,8.471,8.471,0,0,1,8.5-8.449,8.472,8.472,0,0,1,8.5,8.449,8.472,8.472,0,0,1-8.5,8.449Zm0-59.142a8.472,8.472,0,0,1-8.5-8.449,8.472,8.472,0,0,1,8.5-8.449,8.472,8.472,0,0,1,8.5,8.449A8.472,8.472,0,0,1,914.3-192.825ZM858.5,102.888a8.449,8.449,0,1,1,8.5-8.449,8.471,8.471,0,0,1-8.5,8.449Zm0-59.143A8.449,8.449,0,1,1,867,35.3a8.472,8.472,0,0,1-8.5,8.449Zm0-59.143a8.471,8.471,0,0,1-8.5-8.449,8.471,8.471,0,0,1,8.5-8.449,8.472,8.472,0,0,1,8.5,8.449,8.471,8.471,0,0,1-8.5,8.449Zm0-59.143a8.471,8.471,0,0,1-8.5-8.449,8.471,8.471,0,0,1,8.5-8.449,8.472,8.472,0,0,1,8.5,8.449,8.471,8.471,0,0,1-8.5,8.449Zm0-59.143a8.471,8.471,0,0,1-8.5-8.449,8.471,8.471,0,0,1,8.5-8.449,8.472,8.472,0,0,1,8.5,8.449,8.471,8.471,0,0,1-8.5,8.449Zm0-59.142a8.472,8.472,0,0,1-8.5-8.449,8.472,8.472,0,0,1,8.5-8.449,8.472,8.472,0,0,1,8.5,8.449,8.472,8.472,0,0,1-8.5,8.449Z" transform="translate(-850 565.754)" fill="#8264fd"/>
    </clipPath>
  </defs>
  <g id="dots" transform="translate(-17.5 -1219.679)">
    <g id="dots-2" data-name="dots" transform="translate(17.5 1219.679)" opacity="0.282" clip-path="url(#clip-path)">
      <path id="Path_32" data-name="Path 32" d="M846.575-569.178H1163.9v343.764H846.575Z" transform="translate(-856.019 559.735)" fill="#8264fd"/>
    </g>
    <g id="dots-3" data-name="dots" transform="translate(734.566 1793)" opacity="0.15" clip-path="url(#clip-path)">
      <path id="Path_32-2" data-name="Path 32" d="M846.575-569.178H1163.9v343.764H846.575Z" transform="translate(-856.019 559.735)" fill="#8264fd"/>
    </g>
  </g>
</svg>
