<svg xmlns="http://www.w3.org/2000/svg" width="41.522" height="41.521" viewBox="0 0 41.522 41.521">
  <g id="followers" transform="translate(0 -0.002)">
    <g id="Group_586" data-name="Group 586" transform="translate(0 0.002)">
      <g id="Group_585" data-name="Group 585" transform="translate(0 0)">
        <path id="Path_98" data-name="Path 98" d="M31.868,16.188A9.142,9.142,0,1,0,17.1,11.069,9.143,9.143,0,0,0,9.663,27.115,15.517,15.517,0,0,0,0,41.468H3.245A12.262,12.262,0,0,1,15.493,29.219a9.147,9.147,0,0,0,8.942-11.068,9.167,9.167,0,0,0,1.6.141,12.235,12.235,0,0,1,9.76,4.859L38,20.7A15.571,15.571,0,0,0,31.868,16.188ZM15.493,25.975a5.9,5.9,0,1,1,5.9-5.9A5.908,5.908,0,0,1,15.493,25.975ZM26.038,15.048a5.9,5.9,0,1,1,5.9-5.9A5.908,5.908,0,0,1,26.038,15.048Z" transform="translate(0 -0.002)" fill="#8c61fe"/>
      </g>
    </g>
    <g id="Group_588" data-name="Group 588" transform="translate(19.242 24.323)">
      <g id="Group_587" data-name="Group 587">
        <path id="Path_99" data-name="Path 99" d="M257.133,299.9,245.864,312.45,239.5,306.4l-2.237,2.35,8.779,8.357,13.5-15.032Z" transform="translate(-237.267 -299.903)" fill="#8c61fe"/>
      </g>
    </g>
  </g>
</svg>
