<svg xmlns="http://www.w3.org/2000/svg" xmlns:xlink="http://www.w3.org/1999/xlink" width="835.499" height="975.641" viewBox="0 0 835.499 975.641"><defs><style>.a{fill:#8264fd;}.b{opacity:0.282;}.b,.c{clip-path:url(#a);}.c{opacity:0.15;}</style><clipPath id="a"><path class="a" d="M1139.933-253.143a8.471,8.471,0,0,1-8.5-8.449,8.471,8.471,0,0,1,8.5-8.449,8.472,8.472,0,0,1,8.5,8.449,8.472,8.472,0,0,1-8.5,8.449Zm0-59.142a8.471,8.471,0,0,1-8.5-8.449,8.471,8.471,0,0,1,8.5-8.449,8.472,8.472,0,0,1,8.5,8.449,8.472,8.472,0,0,1-8.5,8.451Zm0-59.143a8.471,8.471,0,0,1-8.5-8.449,8.471,8.471,0,0,1,8.5-8.449,8.471,8.471,0,0,1,8.5,8.449,8.471,8.471,0,0,1-8.5,8.449Zm0-59.143a8.471,8.471,0,0,1-8.5-8.449,8.471,8.471,0,0,1,8.5-8.449,8.471,8.471,0,0,1,8.5,8.449,8.472,8.472,0,0,1-8.5,8.449Zm0-59.142a8.471,8.471,0,0,1-8.5-8.449,8.471,8.471,0,0,1,8.5-8.449,8.472,8.472,0,0,1,8.5,8.449A8.471,8.471,0,0,1,1139.933-489.713Zm0-59.143a8.471,8.471,0,0,1-8.5-8.449,8.471,8.471,0,0,1,8.5-8.449,8.471,8.471,0,0,1,8.5,8.449A8.471,8.471,0,0,1,1139.933-548.856Zm-55.8,295.713a8.471,8.471,0,0,1-8.5-8.449,8.471,8.471,0,0,1,8.5-8.449,8.472,8.472,0,0,1,8.5,8.449,8.471,8.471,0,0,1-8.492,8.449Zm0-59.143a8.471,8.471,0,0,1-8.5-8.449,8.471,8.471,0,0,1,8.5-8.449,8.472,8.472,0,0,1,8.5,8.449,8.472,8.472,0,0,1-8.492,8.451Zm0-59.143a8.471,8.471,0,0,1-8.5-8.449,8.472,8.472,0,0,1,8.5-8.449,8.471,8.471,0,0,1,8.5,8.449,8.471,8.471,0,0,1-8.492,8.449Zm0-59.143a8.471,8.471,0,0,1-8.5-8.449,8.471,8.471,0,0,1,8.5-8.449,8.471,8.471,0,0,1,8.5,8.449,8.472,8.472,0,0,1-8.492,8.449Zm0-59.143a8.471,8.471,0,0,1-8.5-8.449,8.471,8.471,0,0,1,8.5-8.449,8.471,8.471,0,0,1,8.5,8.449,8.472,8.472,0,0,1-8.492,8.449Zm0-59.143a8.471,8.471,0,0,1-8.5-8.449,8.471,8.471,0,0,1,8.5-8.449,8.471,8.471,0,0,1,8.5,8.449,8.471,8.471,0,0,1-8.492,8.449Zm-55.8,295.713a8.471,8.471,0,0,1-8.5-8.449,8.471,8.471,0,0,1,8.5-8.449,8.471,8.471,0,0,1,8.5,8.449,8.471,8.471,0,0,1-8.492,8.449Zm0-59.142a8.471,8.471,0,0,1-8.5-8.449,8.472,8.472,0,0,1,8.5-8.449,8.471,8.471,0,0,1,8.5,8.449,8.472,8.472,0,0,1-8.492,8.451Zm0-59.143a8.471,8.471,0,0,1-8.5-8.449,8.471,8.471,0,0,1,8.5-8.448,8.471,8.471,0,0,1,8.5,8.449,8.471,8.471,0,0,1-8.492,8.449Zm0-59.143a8.471,8.471,0,0,1-8.5-8.449,8.471,8.471,0,0,1,8.5-8.449,8.472,8.472,0,0,1,8.5,8.449,8.472,8.472,0,0,1-8.492,8.449Zm0-59.143a8.471,8.471,0,0,1-8.5-8.449,8.471,8.471,0,0,1,8.5-8.449,8.471,8.471,0,0,1,8.5,8.449,8.471,8.471,0,0,1-8.492,8.449Zm0-59.143a8.471,8.471,0,0,1-8.5-8.449,8.471,8.471,0,0,1,8.5-8.449,8.471,8.471,0,0,1,8.5,8.449,8.471,8.471,0,0,1-8.492,8.449ZM970.093-253.143a8.472,8.472,0,0,1-8.5-8.449,8.472,8.472,0,0,1,8.5-8.449,8.471,8.471,0,0,1,8.5,8.449,8.471,8.471,0,0,1-8.492,8.449Zm0-59.143a8.472,8.472,0,0,1-8.5-8.449,8.471,8.471,0,0,1,8.5-8.449,8.471,8.471,0,0,1,8.5,8.449,8.472,8.472,0,0,1-8.492,8.451Zm0-59.143a8.472,8.472,0,0,1-8.5-8.449,8.471,8.471,0,0,1,8.5-8.448,8.471,8.471,0,0,1,8.5,8.449,8.471,8.471,0,0,1-8.492,8.449Zm0-59.143a8.471,8.471,0,0,1-8.5-8.449,8.472,8.472,0,0,1,8.5-8.449,8.471,8.471,0,0,1,8.5,8.449,8.471,8.471,0,0,1-8.492,8.449Zm0-59.143a8.471,8.471,0,0,1-8.5-8.449,8.472,8.472,0,0,1,8.5-8.449,8.471,8.471,0,0,1,8.5,8.449,8.471,8.471,0,0,1-8.492,8.449Zm0-59.142a8.472,8.472,0,0,1-8.5-8.449,8.471,8.471,0,0,1,8.5-8.449,8.471,8.471,0,0,1,8.5,8.449,8.471,8.471,0,0,1-8.492,8.449Zm-55.8,295.713a8.472,8.472,0,0,1-8.5-8.449,8.471,8.471,0,0,1,8.5-8.449,8.471,8.471,0,0,1,8.5,8.449,8.471,8.471,0,0,1-8.493,8.449Zm0-59.143a8.471,8.471,0,0,1-8.5-8.449,8.471,8.471,0,0,1,8.5-8.449,8.471,8.471,0,0,1,8.5,8.449,8.471,8.471,0,0,1-8.493,8.451Zm0-59.142a8.471,8.471,0,0,1-8.5-8.449,8.471,8.471,0,0,1,8.5-8.449,8.471,8.471,0,0,1,8.5,8.449,8.471,8.471,0,0,1-8.493,8.449Zm0-59.143a8.471,8.471,0,0,1-8.5-8.449,8.471,8.471,0,0,1,8.5-8.449,8.471,8.471,0,0,1,8.5,8.449,8.471,8.471,0,0,1-8.493,8.449Zm0-59.143a8.471,8.471,0,0,1-8.5-8.449,8.471,8.471,0,0,1,8.5-8.449,8.471,8.471,0,0,1,8.5,8.449,8.471,8.471,0,0,1-8.493,8.449Zm0-59.143a8.471,8.471,0,0,1-8.5-8.449,8.471,8.471,0,0,1,8.5-8.449,8.472,8.472,0,0,1,8.5,8.449,8.471,8.471,0,0,1-8.493,8.449ZM858.5-253.143a8.471,8.471,0,0,1-8.5-8.449,8.472,8.472,0,0,1,8.5-8.449,8.472,8.472,0,0,1,8.5,8.449,8.472,8.472,0,0,1-8.5,8.449Zm0-59.142a8.471,8.471,0,0,1-8.5-8.449,8.472,8.472,0,0,1,8.5-8.449,8.472,8.472,0,0,1,8.5,8.449,8.471,8.471,0,0,1-8.5,8.451Zm0-59.143a8.471,8.471,0,0,1-8.5-8.449,8.472,8.472,0,0,1,8.5-8.449,8.471,8.471,0,0,1,8.5,8.449,8.471,8.471,0,0,1-8.5,8.449Zm0-59.143a8.471,8.471,0,0,1-8.5-8.449,8.471,8.471,0,0,1,8.5-8.449,8.471,8.471,0,0,1,8.5,8.449,8.472,8.472,0,0,1-8.5,8.449Zm0-59.142a8.471,8.471,0,0,1-8.5-8.449,8.471,8.471,0,0,1,8.5-8.449,8.472,8.472,0,0,1,8.5,8.449,8.471,8.471,0,0,1-8.5,8.449Zm0-59.143A8.471,8.471,0,0,1,850-557.3a8.471,8.471,0,0,1,8.5-8.449A8.472,8.472,0,0,1,867-557.3a8.471,8.471,0,0,1-8.5,8.449Zm281.434,651.743a8.449,8.449,0,1,1,8.5-8.449,8.471,8.471,0,0,1-8.5,8.449Zm0-59.143a8.449,8.449,0,1,1,8.5-8.449A8.471,8.471,0,0,1,1139.933,43.745Zm0-59.143a8.471,8.471,0,0,1-8.5-8.449,8.471,8.471,0,0,1,8.5-8.449,8.472,8.472,0,0,1,8.5,8.449A8.471,8.471,0,0,1,1139.933-15.4Zm0-59.143a8.471,8.471,0,0,1-8.5-8.449,8.471,8.471,0,0,1,8.5-8.449,8.471,8.471,0,0,1,8.5,8.449,8.472,8.472,0,0,1-8.5,8.449Zm0-59.143a8.471,8.471,0,0,1-8.5-8.449,8.471,8.471,0,0,1,8.5-8.449,8.472,8.472,0,0,1,8.5,8.449,8.472,8.472,0,0,1-8.5,8.449Zm0-59.142a8.472,8.472,0,0,1-8.5-8.449,8.471,8.471,0,0,1,8.5-8.449,8.472,8.472,0,0,1,8.5,8.449A8.472,8.472,0,0,1,1139.933-192.825Zm-55.8,295.713a8.449,8.449,0,1,1,8.5-8.449,8.471,8.471,0,0,1-8.5,8.449Zm0-59.143a8.449,8.449,0,1,1,8.5-8.449,8.471,8.471,0,0,1-8.5,8.449Zm0-59.143a8.471,8.471,0,0,1-8.5-8.449,8.471,8.471,0,0,1,8.5-8.449,8.472,8.472,0,0,1,8.5,8.449,8.471,8.471,0,0,1-8.5,8.449Zm0-59.143a8.471,8.471,0,0,1-8.5-8.449,8.471,8.471,0,0,1,8.5-8.449,8.471,8.471,0,0,1,8.5,8.449,8.471,8.471,0,0,1-8.5,8.449Zm0-59.143a8.471,8.471,0,0,1-8.5-8.449,8.471,8.471,0,0,1,8.5-8.449,8.472,8.472,0,0,1,8.5,8.449,8.471,8.471,0,0,1-8.5,8.449Zm0-59.142a8.471,8.471,0,0,1-8.5-8.449,8.471,8.471,0,0,1,8.5-8.449,8.472,8.472,0,0,1,8.5,8.449,8.472,8.472,0,0,1-8.5,8.449Zm-55.8,295.713a8.449,8.449,0,1,1,8.5-8.449,8.471,8.471,0,0,1-8.5,8.449Zm0-59.143a8.449,8.449,0,1,1,8.5-8.449,8.471,8.471,0,0,1-8.5,8.449Zm0-59.143a8.471,8.471,0,0,1-8.5-8.449,8.471,8.471,0,0,1,8.5-8.449,8.472,8.472,0,0,1,8.5,8.449,8.472,8.472,0,0,1-8.5,8.449Zm0-59.143a8.471,8.471,0,0,1-8.5-8.449,8.471,8.471,0,0,1,8.5-8.449,8.472,8.472,0,0,1,8.5,8.449,8.472,8.472,0,0,1-8.5,8.449Zm0-59.143a8.471,8.471,0,0,1-8.5-8.449,8.471,8.471,0,0,1,8.5-8.449,8.472,8.472,0,0,1,8.5,8.449,8.472,8.472,0,0,1-8.5,8.449Zm0-59.142a8.472,8.472,0,0,1-8.5-8.449,8.471,8.471,0,0,1,8.5-8.449,8.472,8.472,0,0,1,8.5,8.449,8.472,8.472,0,0,1-8.5,8.449ZM970.1,102.888a8.449,8.449,0,1,1,8.5-8.449,8.472,8.472,0,0,1-8.5,8.449Zm0-59.143a8.449,8.449,0,1,1,8.5-8.449A8.472,8.472,0,0,1,970.1,43.745Zm0-59.143a8.472,8.472,0,0,1-8.5-8.449,8.472,8.472,0,0,1,8.5-8.449,8.471,8.471,0,0,1,8.5,8.449A8.471,8.471,0,0,1,970.1-15.4Zm0-59.143a8.472,8.472,0,0,1-8.5-8.449,8.472,8.472,0,0,1,8.5-8.449,8.471,8.471,0,0,1,8.5,8.449,8.471,8.471,0,0,1-8.5,8.449Zm0-59.143a8.472,8.472,0,0,1-8.5-8.449,8.472,8.472,0,0,1,8.5-8.449,8.471,8.471,0,0,1,8.5,8.449,8.471,8.471,0,0,1-8.5,8.449Zm0-59.142a8.472,8.472,0,0,1-8.5-8.449,8.472,8.472,0,0,1,8.5-8.449,8.471,8.471,0,0,1,8.5,8.449A8.471,8.471,0,0,1,970.1-192.825ZM914.3,102.888a8.449,8.449,0,1,1,8.5-8.449,8.471,8.471,0,0,1-8.5,8.449Zm0-59.143a8.449,8.449,0,1,1,8.5-8.449A8.471,8.471,0,0,1,914.3,43.745Zm0-59.143a8.471,8.471,0,0,1-8.5-8.449,8.471,8.471,0,0,1,8.5-8.449,8.472,8.472,0,0,1,8.5,8.449A8.471,8.471,0,0,1,914.3-15.4Zm0-59.143a8.471,8.471,0,0,1-8.5-8.449,8.471,8.471,0,0,1,8.5-8.449,8.472,8.472,0,0,1,8.5,8.449,8.472,8.472,0,0,1-8.5,8.449Zm0-59.143a8.471,8.471,0,0,1-8.5-8.449,8.471,8.471,0,0,1,8.5-8.449,8.472,8.472,0,0,1,8.5,8.449,8.472,8.472,0,0,1-8.5,8.449Zm0-59.142a8.472,8.472,0,0,1-8.5-8.449,8.472,8.472,0,0,1,8.5-8.449,8.472,8.472,0,0,1,8.5,8.449A8.472,8.472,0,0,1,914.3-192.825ZM858.5,102.888a8.449,8.449,0,1,1,8.5-8.449,8.471,8.471,0,0,1-8.5,8.449Zm0-59.143A8.449,8.449,0,1,1,867,35.3a8.472,8.472,0,0,1-8.5,8.449Zm0-59.143a8.471,8.471,0,0,1-8.5-8.449,8.471,8.471,0,0,1,8.5-8.449,8.472,8.472,0,0,1,8.5,8.449,8.471,8.471,0,0,1-8.5,8.449Zm0-59.143a8.471,8.471,0,0,1-8.5-8.449,8.471,8.471,0,0,1,8.5-8.449,8.472,8.472,0,0,1,8.5,8.449,8.471,8.471,0,0,1-8.5,8.449Zm0-59.143a8.471,8.471,0,0,1-8.5-8.449,8.471,8.471,0,0,1,8.5-8.449,8.472,8.472,0,0,1,8.5,8.449,8.471,8.471,0,0,1-8.5,8.449Zm0-59.142a8.472,8.472,0,0,1-8.5-8.449,8.472,8.472,0,0,1,8.5-8.449,8.472,8.472,0,0,1,8.5,8.449,8.472,8.472,0,0,1-8.5,8.449Z" transform="translate(-850 565.754)"/></clipPath></defs><g transform="translate(-124.5 -1247)"><g class="b" transform="translate(124.5 1247)"><path class="a" d="M846.575-569.178H1163.9v343.764H846.575Z" transform="translate(-856.019 559.735)"/></g><g class="c" transform="translate(661.566 1554)"><path class="a" d="M846.575-569.178H1163.9v343.764H846.575Z" transform="translate(-856.019 559.735)"/></g></g></svg>