<svg xmlns="http://www.w3.org/2000/svg" width="31.212" height="39.154" viewBox="0 0 31.212 39.154">
  <g id="Group_34" data-name="Group 34" transform="translate(-1678.309 -916.5)">
    <path id="Path_5" data-name="Path 5" d="M1685.6,1237.244c-4.018,0-7.287-2.973-7.287-6.627s3.269-6.627,7.287-6.627,7.286,2.973,7.286,6.627S1689.614,1237.244,1685.6,1237.244Zm0-11.991c-3.321,0-6.023,2.406-6.023,5.364s2.7,5.364,6.023,5.364,6.023-2.406,6.023-5.364S1688.917,1225.254,1685.6,1225.254Z" transform="translate(0 -281.59)" fill="#8c61fe"/>
    <path id="Path_6" data-name="Path 6" d="M1836.956,949.659a.632.632,0,0,1-.632-.632v-31.9a.632.632,0,0,1,.632-.632c7.142,0,12.178,1.727,14.967,5.132a10.441,10.441,0,0,1,2.181,8.127,8.36,8.36,0,0,1-5.438,6.165.632.632,0,0,1-.775-.886c.017-.034,1.784-3.52.1-6.281a6.547,6.547,0,0,0-3.321-2.553,20.537,20.537,0,0,0-7.085-1.139v23.962A.632.632,0,0,1,1836.956,949.659Zm.632-25.857c5.947.09,9.811,1.538,11.49,4.308a7.464,7.464,0,0,1,.525,5.977,7.153,7.153,0,0,0,3.255-4.538c0-.009,0-.017,0-.025a9.323,9.323,0,0,0-1.93-7.1c-2.46-2.991-6.948-4.553-13.345-4.649Z" transform="translate(-144.705 0)" fill="#8c61fe"/>
  </g>
</svg>
