<svg xmlns="http://www.w3.org/2000/svg" xmlns:xlink="http://www.w3.org/1999/xlink" width="324" height="47.011" viewBox="0 0 324 47.011"><defs><style>.a,.b{fill:url(#a);}.b{fill-rule:evenodd;}.c{fill:#0f48d6;font-size:23px;font-family:Poppins-Light, Poppins;font-weight:300;}</style><linearGradient id="a" x1="0.5" x2="0.5" y2="1" gradientUnits="objectBoundingBox"><stop offset="0" stop-color="#8c37f6"/><stop offset="0.593" stop-color="#4d34f9"/><stop offset="1" stop-color="#1431fb"/></linearGradient></defs><g transform="translate(-140 -37)"><g transform="translate(140 37)"><path class="a" d="M5.09-30.656A2.285,2.285,0,0,0,5.6-29.135a3.008,3.008,0,0,0,1.3.894,14.261,14.261,0,0,0,1.775.507q.978.217,1.956.5a8.6,8.6,0,0,1,1.775.713,3.382,3.382,0,0,1,1.3,1.3,4.206,4.206,0,0,1,.507,2.15,4.59,4.59,0,0,1-1.5,3.406,5.571,5.571,0,0,1-4.046,1.449,6.824,6.824,0,0,1-4.142-1.171A3.736,3.736,0,0,1,2.94-22.565H5.283a2.623,2.623,0,0,0,.906,1.836,3.583,3.583,0,0,0,2.4.7,3.724,3.724,0,0,0,2.536-.821,2.481,2.481,0,0,0,.942-1.92,2.524,2.524,0,0,0-.507-1.691,3.055,3.055,0,0,0-1.3-.882,13.048,13.048,0,0,0-1.775-.5q-.978-.205-1.956-.5a8.634,8.634,0,0,1-1.775-.737,3.45,3.45,0,0,1-1.3-1.328,4.326,4.326,0,0,1-.507-2.186A4.277,4.277,0,0,1,4.45-34a5.843,5.843,0,0,1,3.937-1.292,6.111,6.111,0,0,1,3.865,1.123,4.363,4.363,0,0,1,1.655,3.1h-2.44a2.468,2.468,0,0,0-.93-1.691,3.379,3.379,0,0,0-2.246-.7,3.587,3.587,0,0,0-2.307.713A2.513,2.513,0,0,0,5.09-30.656ZM23.133-19.98a4.448,4.448,0,0,0,3.225-1.341,4.96,4.96,0,0,0,1.365-3.708,5.049,5.049,0,0,0-1.3-3.7,4.283,4.283,0,0,0-3.176-1.328,4.128,4.128,0,0,0-3.128,1.328,5.183,5.183,0,0,0-1.256,3.708,5.312,5.312,0,0,0,1.208,3.708A3.964,3.964,0,0,0,23.133-19.98Zm-4.7-.072A6.819,6.819,0,0,1,16.611-25a6.689,6.689,0,0,1,1.908-4.964,6.509,6.509,0,0,1,4.783-1.9,6.509,6.509,0,0,1,4.783,1.9,6.674,6.674,0,0,1,1.908,4.952A6.523,6.523,0,0,1,28-20.065a6.8,6.8,0,0,1-4.867,1.9A6.25,6.25,0,0,1,18.435-20.053ZM34.944-31.647v2.15a4.611,4.611,0,0,1,4.324-2.367A5,5,0,0,1,42.939-30.4a5.61,5.61,0,0,1,1.473,4.167v7.85H42.239v-7.488a4.316,4.316,0,0,0-.966-3.043A3.466,3.466,0,0,0,38.6-29.956a3.505,3.505,0,0,0-2.681,1.039,4.281,4.281,0,0,0-.978,3.043v7.488h-2.2V-31.647Zm18.43,13.478a5.919,5.919,0,0,1-4.517-1.944,7.01,7.01,0,0,1-1.812-4.976,6.779,6.779,0,0,1,1.8-4.9,6.018,6.018,0,0,1,4.529-1.872,5.442,5.442,0,0,1,2.959.8,5.225,5.225,0,0,1,1.92,2.077v-2.657h2.222v13.6a5.965,5.965,0,0,1-1.763,4.456,6.123,6.123,0,0,1-4.469,1.727,7.571,7.571,0,0,1-4.481-1.256,4.553,4.553,0,0,1-2.017-3.285H49.9a3.271,3.271,0,0,0,1.473,1.884,5.193,5.193,0,0,0,2.874.749A3.928,3.928,0,0,0,57.106-14.9a4.21,4.21,0,0,0,1.147-3.152v-3.043a5.267,5.267,0,0,1-1.92,2.113A5.381,5.381,0,0,1,53.374-18.168Zm3.563-3.237A4.94,4.94,0,0,0,58.253-25a4.94,4.94,0,0,0-1.316-3.6,4.257,4.257,0,0,0-3.164-1.353,4.334,4.334,0,0,0-3.164,1.3A4.773,4.773,0,0,0,49.292-25.1a5.083,5.083,0,0,0,1.328,3.647,4.213,4.213,0,0,0,3.164,1.4A4.244,4.244,0,0,0,56.937-21.405Zm6.679-6.5A3.52,3.52,0,0,1,65-30.717a5.465,5.465,0,0,1,3.6-1.147,5.015,5.015,0,0,1,3.466,1.123,4.3,4.3,0,0,1,1.377,3.08h-2.27a2.533,2.533,0,0,0-.749-1.787,2.683,2.683,0,0,0-1.944-.676,2.972,2.972,0,0,0-1.956.592,1.888,1.888,0,0,0-.713,1.522,1.6,1.6,0,0,0,.809,1.437,5.8,5.8,0,0,0,1.956.737q1.147.229,2.295.531a4.144,4.144,0,0,1,1.957,1.135A3.259,3.259,0,0,1,73.64-21.8a3.142,3.142,0,0,1-1.389,2.585,5.826,5.826,0,0,1-3.611,1.051,5.405,5.405,0,0,1-3.563-1.111,4.12,4.12,0,0,1-1.461-3.068h2.271a2.424,2.424,0,0,0,.785,1.775,2.92,2.92,0,0,0,2.029.664,3.3,3.3,0,0,0,2.029-.556,1.7,1.7,0,0,0,.737-1.413,1.722,1.722,0,0,0-.58-1.365,3.215,3.215,0,0,0-1.449-.7q-.87-.193-1.9-.459t-1.9-.568A3.078,3.078,0,0,1,64.2-26.019,2.986,2.986,0,0,1,63.616-27.9Zm24.227-7.222h2.2v16.739h-2.2L79-31.671v13.285H76.8V-35.125H79l8.84,13.285ZM99.219-18.168a6.1,6.1,0,0,1-4.638-1.884,6.931,6.931,0,0,1-1.787-4.976,6.835,6.835,0,0,1,1.812-4.964,6.246,6.246,0,0,1,4.7-1.872,6.222,6.222,0,0,1,4.638,1.775,6.179,6.179,0,0,1,1.751,4.529,8.268,8.268,0,0,1-.1,1.3H95.04a4.559,4.559,0,0,0,1.244,3.128,3.974,3.974,0,0,0,2.935,1.147,4.1,4.1,0,0,0,2.283-.6,3.587,3.587,0,0,0,1.365-1.594h2.367a6.086,6.086,0,0,1-2.162,2.874A6.3,6.3,0,0,1,99.219-18.168ZM103.4-25.85a4.138,4.138,0,0,0-1.208-3.056,4.051,4.051,0,0,0-2.935-1.147,4.015,4.015,0,0,0-2.911,1.123,4.5,4.5,0,0,0-1.28,3.08Zm11.7,5.8a4.205,4.205,0,0,0,3.164-1.389,5.084,5.084,0,0,0,1.316-3.647,4.789,4.789,0,0,0-1.316-3.563,4.334,4.334,0,0,0-3.164-1.3,4.257,4.257,0,0,0-3.164,1.353,4.923,4.923,0,0,0-1.316,3.587,4.966,4.966,0,0,0,1.316,3.6A4.239,4.239,0,0,0,115.1-20.053Zm.423-11.811a6.018,6.018,0,0,1,4.529,1.872,6.779,6.779,0,0,1,1.8,4.9,7.01,7.01,0,0,1-1.812,4.976,5.919,5.919,0,0,1-4.517,1.944,5.381,5.381,0,0,1-2.959-.809,5.446,5.446,0,0,1-1.944-2.113v8.985h-2.2V-31.647h2.2v2.657a5.406,5.406,0,0,1,1.944-2.077A5.442,5.442,0,0,1,115.523-31.864Zm18.1,10.459a4.94,4.94,0,0,0,1.316-3.6,4.94,4.94,0,0,0-1.316-3.6,4.257,4.257,0,0,0-3.164-1.353,4.335,4.335,0,0,0-3.164,1.3,4.773,4.773,0,0,0-1.316,3.551,5.083,5.083,0,0,0,1.328,3.647,4.213,4.213,0,0,0,3.164,1.4A4.244,4.244,0,0,0,133.627-21.405Zm-3.563,3.237a5.919,5.919,0,0,1-4.517-1.944,7.01,7.01,0,0,1-1.812-4.976,6.779,6.779,0,0,1,1.8-4.9,6.018,6.018,0,0,1,4.529-1.872,5.442,5.442,0,0,1,2.959.8,5.225,5.225,0,0,1,1.92,2.077v-2.657h2.222v13.261h-2.222v-2.705a5.267,5.267,0,0,1-1.92,2.113A5.381,5.381,0,0,1,130.064-18.168Zm10.724-.217V-36.26h2.2v17.874Z" transform="translate(66.963 48.032)"/><path class="b" d="M116.189,152.632c7.487-.083,12.409,3.774,14.688,8.775.372.816.261,1.686.612,2.649.285.782,1.34.825,1.5,1.932l-.389.441.111.166c.943.345.952,2.24.723,3.532-.539,3.043-1.361,5.68-3,7.616a20.656,20.656,0,0,1-4.729,3.974l-.89.939c-.508.276-1.106-.055-1.558-.11l-2.17.717q-.333.718-.668,1.435a10.274,10.274,0,0,1-2.225,2.759c-3.813,3.02-8.351,2.727-13.854,1.6l-.222-.663-.279.055a9.761,9.761,0,0,1-3.115,1.214c-4.328.7-10.217-2.578-9.625-6.4.485-3.126,1.663-5.442,2.337-8.444.86-3.828-1.151-6.024-3.728-6.9a5.475,5.475,0,0,0-2.225-.442c-2.2.271-4.033,1.361-4.562,3.256-.774,2.773.141,5.239-1.391,7.395a4.937,4.937,0,0,1-3.227,1.822c-1.664.294-4.206-.656-4.9.662-.746,1.428.6,3.578,1.168,4.525,1.8,2.994,4.019,4.157,7.511,5.519a27.77,27.77,0,0,1,5.3,3.306l1.021-.1,4.356,4.24c.315.886-.626,1.287-1.279,1.537l-4.577-4.452c-1.933-4.086-9.308-4.933-12-8.508-.836-1.109-3.026-3.7-2.225-5.9s3.315-.924,5.73-1.434a4.371,4.371,0,0,0,2.67-1.711c1.311-1.849.557-4.105,1.168-6.677a5.353,5.353,0,0,1,3.06-3.532,5.939,5.939,0,0,1,3.116-.331c3.338.587,5.079,2.144,5.786,5.3.515,2.3-1.469,6.636-2,8.388a7.093,7.093,0,0,0-.223,4.139c.828,2.326,4.824,4.918,8.234,3.918,1.015-.3,1.866-.405,2.337-1.214l-.056-.11c-1.25.127-1.914-.811-2.67-1.38a8.857,8.857,0,0,1-3.115-9.106A12.684,12.684,0,0,1,98,173.548l1-1.435q-.027-.8-.056-1.6c.136-.818.6-1.133.779-1.711.194-.626-.114-1.468.056-2.1,1.332-4.93,3.214-9.088,7.122-11.479.6-.366.851-1.443,1.558-1.6l1.224.221c.113-.383.3-.443.556-.663.545.034.691.25,1.113.331.922.177,1.73-.44,2.449-.607Zm-1.781,2.152c-1.058.765-1.316.086-2.114.331a11.073,11.073,0,0,0-1.113.773l-.835-.276c-.361,1.292-2.2,1.615-3.227,2.263-1.947,1.232-5.057,6.2-4.062,9.327.216.676-.562,1.528-.111,2.042.646.231.966-.3,1.391-.442a3.875,3.875,0,0,1,2.949.938c1.238,1.375,1.133,4.609.667,6.788-.742,3.478-2.44,8.311-4.339,10.761A19.231,19.231,0,0,1,101.556,189h.279c2.072-.91,2.874-2.463,4.34-3.918A71.391,71.391,0,0,1,113.3,178.9c.847-.643,4.089-3.482,5.508-2.98.566.2.937.709,1.5.994v.386a1.38,1.38,0,0,0-.5.718,2.716,2.716,0,0,1,1.335,2.207l.167.11c.875-.212,1.707-.153,2.448-.386.292-.605.653-1.332,1.613-1.269a1.861,1.861,0,0,0,.945-.055l1.947-1.6a12.105,12.105,0,0,0,2.671-5.132v-3.7l.557-1.1c-.806-.487-.241-1.155-.668-2.042l-.89-.772c-.552-.828-.758-1.847-1.28-2.649C125.769,157.2,121.859,154.783,114.408,154.784Zm-28.47,39.938.663.71Z" transform="translate(-72.508 -152.63)"/></g><text class="c" transform="translate(358 67)"><tspan x="0" y="0">for Artists</tspan></text></g></svg>