<svg xmlns="http://www.w3.org/2000/svg" width="58.589" height="46.458" viewBox="0 0 58.589 46.458">
  <path id="Path_2700" data-name="Path 2700" d="M54.38-70.8l-1.65-2.723q14.028-7.427,14.028-14.028,0-2.806-5.281-5.529a19.541,19.541,0,0,1-6.56-4.951,10.449,10.449,0,0,1-1.857-6.437,12.318,12.318,0,0,1,3.755-9.036,12.223,12.223,0,0,1,8.953-3.755,11.308,11.308,0,0,1,9.366,4.621q3.59,4.621,3.59,12.048a27.852,27.852,0,0,1-9.242,20.96,36.631,36.631,0,0,1-6.148,4.662A70.751,70.751,0,0,1,54.38-70.8Zm-32.6,0-1.65-2.723q14.028-7.509,14.028-14.028a3.862,3.862,0,0,0-1.155-2.764,17.138,17.138,0,0,0-4.126-2.764,18.33,18.33,0,0,1-6.478-4.91,10.531,10.531,0,0,1-1.939-6.478,12.347,12.347,0,0,1,3.713-9.077,12.154,12.154,0,0,1,8.912-3.713,11.388,11.388,0,0,1,9.448,4.621q3.59,4.621,3.59,12.048a27.654,27.654,0,0,1-2.352,11.223A29.906,29.906,0,0,1,36.8-79.631Q31.44-74.68,21.785-70.8Z" transform="translate(78.724 -70.802) rotate(180)" fill="#fff"/>
</svg>